HIERARCHY
ROOT hip
{
	OFFSET 0.000000 0.000000 0.000000 
	CHANNELS 6 Xposition Yposition Zposition Xrotation Zrotation Yrotation
	JOINT abdomen
	{
		OFFSET 0.000000 3.402643 0.000000 
		CHANNELS 3 Xrotation Zrotation Yrotation
		JOINT chest
		{
			OFFSET 0.000000 8.438565 -0.680529 
			CHANNELS 3 Xrotation Zrotation Yrotation
			JOINT neck
			{
				OFFSET 0.000000 10.207942 -0.272212 
				CHANNELS 3 Xrotation Zrotation Yrotation
				JOINT head
				{
					OFFSET 0.000000 3.130431 0.000000 
					CHANNELS 3 Xrotation Zrotation Yrotation
					End Site
					{
						OFFSET 0.000000 3.130435 0.000000 
					}
				}
			}
			JOINT lCollar
			{
				OFFSET 3.470700 6.669187 -0.816635 
				CHANNELS 3 Yrotation Zrotation Xrotation
				JOINT lShldr
				{
					OFFSET 3.198488 0.000000 0.000000 
					CHANNELS 3 Zrotation Yrotation Xrotation
					JOINT lForeArm
					{
						OFFSET 10.139888 0.000000 0.000000 
						CHANNELS 3 Yrotation Zrotation Xrotation
						JOINT lHand
						{
							OFFSET 8.370511 0.000000 0.000000 
							CHANNELS 3 Zrotation Yrotation Xrotation
							End Site
							{
								OFFSET 4.083176 0.000000 0.000000 
							}
						}
					}
				}
			}
			JOINT rCollar
			{
				OFFSET -3.470700 6.669187 -0.816635 
				CHANNELS 3 Yrotation Zrotation Xrotation
				JOINT rShldr
				{
					OFFSET -3.198488 0.000000 0.000000 
					CHANNELS 3 Zrotation Yrotation Xrotation
					JOINT rForeArm
					{
						OFFSET -10.139888 0.000000 0.000000 
						CHANNELS 3 Yrotation Zrotation Xrotation
						JOINT rHand
						{
							OFFSET -8.370511 0.000000 0.000000 
							CHANNELS 3 Zrotation Yrotation Xrotation
							End Site
							{
								OFFSET -4.083176 0.000000 0.000000 
							}
						}
					}
				}
			}
		}
	}
	JOINT lThigh
	{
		OFFSET 5.308129 -1.633274 1.361059 
		CHANNELS 3 Xrotation Zrotation Yrotation
		JOINT lShin
		{
			OFFSET -2.041588 -20.007561 0.000000 
			CHANNELS 3 Xrotation Zrotation Yrotation
			JOINT lFoot
			{
				OFFSET 0.000000 -19.190928 -1.224953 
				CHANNELS 3 Xrotation Yrotation Zrotation
				End Site
				{
					OFFSET 0.000000 -2.449906 4.627600 
				}
			}
		}
	}
	JOINT rThigh
	{
		OFFSET -5.308129 -1.633274 1.361059 
		CHANNELS 3 Xrotation Zrotation Yrotation
		JOINT rShin
		{
			OFFSET 2.041588 -20.007561 0.000000 
			CHANNELS 3 Xrotation Zrotation Yrotation
			JOINT rFoot
			{
				OFFSET 0.000000 -19.190928 -1.224953 
				CHANNELS 3 Xrotation Yrotation Zrotation
				End Site
				{
					OFFSET 0.000000 -2.449906 4.627600 
				}
			}
		}
	}
}
MOTION
Frames: 9
Frame Time: 0.011111
-87.336853 48.933247 0.475027 14.541545 -7.881290 100.312782 39.327709 -11.756238 -25.801701 -21.658661 5.416523 -4.700275 -30.414410 4.924906 1.991213 37.665215 0.470155 7.087781 3.134826 -1.098498 2.090950 -58.847782 -67.973534 50.925220 -86.150131 1.294059 29.296331 8.524705 12.647240 -34.534561 -2.361975 3.467811 1.820220 33.227158 -25.033649 65.992126 82.148804 -5.304400 23.916998 -8.534408 -12.637552 63.949074 29.830832 -6.825772 -6.189034 18.018398 -5.848523 -3.248544 -15.519602 -8.497523 -5.527410 -61.176563 -28.767672 5.146019 74.991379 0.860611 9.175666 -11.261078 -167.643188 -145.228195 
-85.143555 49.115406 0.554145 13.987737 -7.856943 100.365967 38.363274 -11.310997 -26.095758 -21.083639 5.949804 -4.903369 -29.941366 5.409899 2.239732 37.706085 -0.625177 7.428068 3.134826 -1.098498 2.090950 -57.011868 -68.931122 50.197582 -86.222839 1.252155 29.799046 8.524705 12.647240 -33.147835 -2.361975 3.467811 1.820220 29.712494 -26.259224 68.463699 82.405495 -5.141061 24.111961 -8.534408 -12.637552 64.759628 32.015045 -5.018913 -4.812583 16.007065 -5.906534 -2.976851 -9.460692 -8.005977 -4.749119 -61.966774 -27.830183 5.437116 83.305710 -0.253423 9.530563 -19.361847 -125.650482 193.984436 
-82.935585 49.339684 0.565631 15.569610 -8.240397 100.547325 37.739960 -12.790391 -28.054365 -20.313108 6.735878 -5.180819 -29.839468 6.289898 2.362293 38.410999 -2.143041 7.653831 3.134826 -1.098498 2.090950 -54.946815 -69.332130 49.493641 -86.279335 1.298591 30.217388 8.524705 12.647240 -34.163467 -2.361975 3.467811 1.820220 26.507214 -27.225304 70.828461 82.678024 -4.950364 24.300030 -8.534408 -12.637552 65.531113 34.375080 -5.381028 -4.968288 14.980048 -5.917881 -2.826063 -5.594302 -6.871688 -4.084259 -64.069016 -29.295895 7.422034 88.940414 -1.063916 9.685454 80.429497 25.696991 -58.001808 
-80.502380 49.510040 0.515863 16.997328 -7.909509 101.284950 37.314507 -13.727458 -30.044479 -19.059666 7.232176 -5.485809 -29.729464 6.783335 2.618957 38.987770 -2.961020 8.142465 3.134826 -1.098498 2.090950 -52.859863 -69.280731 48.675858 -86.343994 1.409283 30.621681 8.524705 12.647240 -34.456432 -2.361975 3.467811 1.820220 23.362659 -28.157557 73.000923 83.096855 -4.653089 24.640553 -8.534408 -12.637552 65.872902 37.537193 -5.537219 -5.961217 14.675165 -5.918424 -2.789037 -5.655992 -6.527135 -4.023882 -63.826267 -31.727901 8.211131 85.413177 -0.565524 9.612662 5.690865 37.980785 3.742968 
-78.370659 49.663811 0.590196 15.133399 -7.923398 101.398491 35.974201 -11.904869 -29.345091 -18.746111 7.367805 -5.671725 -29.806963 7.520447 2.854835 39.681721 -4.531434 8.477983 3.134826 -1.098498 2.090950 -51.139660 -69.036636 47.940010 -86.408752 1.541559 30.946630 8.524705 12.647240 -36.731827 -2.361975 3.467811 1.820220 20.277309 -28.996984 74.785988 83.600426 -4.257906 25.068623 -8.534408 -12.637552 65.511574 38.221149 -3.144695 -5.748319 15.457656 -5.899247 -2.896391 -7.989557 -4.496809 -3.909021 -62.438496 -29.881901 6.955454 77.005974 0.615880 9.273778 -16.930269 -1.234127 2.530625 
-76.251060 49.799713 0.605508 13.078872 -8.087962 101.575050 34.431477 -9.752480 -28.466961 -18.451986 7.298592 -5.858514 -29.704052 7.875171 3.069076 39.996056 -5.407382 8.781103 3.134826 -1.098498 2.090950 -49.841759 -68.532318 47.326286 -86.475014 1.687576 31.212114 8.524705 12.647240 -36.849010 -2.361975 3.467811 1.820220 17.737007 -29.618723 75.859894 83.944473 -3.969320 25.380657 -8.534408 -12.637552 64.632675 38.555149 -0.879308 -6.203760 17.172022 -5.858087 -3.143866 -10.084202 -1.405288 -3.423892 -60.756882 -28.191755 5.580178 69.208000 1.621073 8.822160 -18.568638 -1.810483 2.215147 
-74.124435 49.918392 0.588920 11.523579 -8.078876 101.795067 33.321907 -7.973489 -27.927572 -18.197437 7.442149 -6.030971 -29.329977 7.977665 3.219257 39.678955 -6.287421 8.764388 3.134826 -1.098498 2.090950 -49.271484 -67.541435 47.345993 -86.533218 1.809426 31.410620 8.524705 12.647240 -38.099010 -2.361975 3.467811 1.820220 15.619427 -30.207912 76.394402 84.180443 -3.756983 25.613049 -8.534408 -12.637552 63.529152 39.020023 0.917640 -7.032102 19.896725 -5.775268 -3.504241 -12.120654 1.008255 -2.885507 -58.618000 -27.068455 4.413791 60.904106 2.608839 8.201803 -18.857891 -3.016051 1.778039 
-72.010910 49.983154 0.551275 11.101333 -8.121076 101.977425 32.607780 -7.335677 -28.084057 -17.933023 8.027791 -6.188068 -28.439402 7.790027 3.660242 38.400566 -6.976660 9.240802 3.134826 -1.098498 2.090950 -49.584320 -66.317329 47.922398 -86.600578 1.947718 31.598242 8.524705 12.647240 -38.372448 -2.361975 3.467811 1.820220 13.845070 -30.656952 76.494507 84.380829 -3.565703 25.811394 -8.534408 -12.637552 62.669781 39.478226 1.620287 -7.779932 23.033678 -5.665250 -3.942841 -12.694114 3.361367 -2.335733 -56.870384 -27.107798 4.323732 53.072857 3.476583 7.494911 -20.620079 -3.342268 1.463104 
-69.917137 49.984749 0.512353 11.189964 -8.401498 102.061005 31.805916 -7.306910 -28.452108 -17.521027 8.416203 -6.311285 -28.001678 7.507593 3.964994 37.516476 -6.982000 9.679855 3.134826 -1.098498 2.090950 -50.058258 -65.042656 48.452763 -86.650787 2.045260 31.730164 8.524705 12.647240 -36.722061 -2.361975 3.467811 1.820220 12.886761 -31.513342 76.107735 84.735199 -3.209078 26.203114 -8.534408 -12.637552 61.693218 39.707451 1.824431 -8.599811 26.495253 -5.518476 -4.390127 -13.425538 4.086706 -2.116426 -55.348721 -27.674648 4.470306 45.260799 4.201841 6.686965 -21.114122 -4.050406 1.141841 
